<svg width="381" height="209" viewBox="0 0 381 209" fill="none" xmlns="http://www.w3.org/2000/svg">
<path d="M235.273 108.529L283.083 10.7796C285.995 4.82621 293.182 2.36057 299.136 5.27249L353.803 32.0114C356.991 33.5705 359.325 36.4605 360.179 39.9048L366.699 66.2178C367.377 68.955 367.07 71.8435 365.831 74.3767L327.147 153.467C324.235 159.42 317.048 161.886 311.095 158.974L240.78 124.582C234.826 121.67 232.361 114.483 235.273 108.529Z" fill="white" stroke="#434243" stroke-width="3"/>
<path d="M351.517 34.8462C341.687 54.9438 338.753 60.2292 363.947 71.7617" stroke="#393939" stroke-width="3"/>
<path d="M273.576 81.0997C273.109 80.8712 272.793 80.5162 272.628 80.0347C272.463 79.5531 272.494 79.0788 272.723 78.6116C272.951 78.1445 273.306 77.8283 273.788 77.6631C274.269 77.4979 274.744 77.5296 275.211 77.758C275.66 77.9777 275.958 78.3239 276.105 78.7967C276.271 79.2783 276.239 79.7526 276.011 80.2197C275.782 80.6869 275.427 81.003 274.945 81.1682C274.482 81.3422 274.026 81.3194 273.576 81.0997ZM291.965 71.2916C293.24 71.9155 294.218 72.7388 294.898 73.7615C295.595 74.793 295.971 75.8452 296.026 76.918L297.344 74.2231L299.823 75.4358L292.441 90.5273C291.782 91.8748 290.911 92.9289 289.826 93.6897C288.733 94.4685 287.502 94.8908 286.134 94.9564C284.784 95.0308 283.399 94.7209 281.98 94.0267C280.04 93.0776 278.647 91.8286 277.801 90.2797C276.956 88.7307 276.803 87.1086 277.343 85.4133L279.768 86.5996C279.598 87.6298 279.804 88.6208 280.385 89.5728C280.957 90.5428 281.836 91.3177 283.021 91.8977C284.369 92.5568 285.671 92.6706 286.929 92.2392C288.204 91.8166 289.215 90.8418 289.962 89.3146L291.478 86.2155C290.571 86.8406 289.501 87.2077 288.268 87.3169C287.034 87.4261 285.78 87.1687 284.504 86.5448C283.193 85.9033 282.156 84.9956 281.394 83.8215C280.651 82.6563 280.259 81.3404 280.219 79.8738C280.18 78.4073 280.525 76.9284 281.254 75.4372C281.992 73.928 282.943 72.7569 284.108 71.9238C285.281 71.0728 286.552 70.5921 287.919 70.4817C289.305 70.3802 290.653 70.6501 291.965 71.2916ZM293.745 81.5802C294.29 80.4663 294.54 79.3863 294.495 78.3402C294.45 77.2941 294.147 76.3665 293.585 75.5574C293.05 74.7392 292.325 74.106 291.408 73.6579C290.492 73.2097 289.551 73.0167 288.586 73.0788C287.62 73.1409 286.711 73.4753 285.858 74.0821C285.004 74.6888 284.305 75.5492 283.76 76.663C283.207 77.7949 282.948 78.8929 282.984 79.957C283.029 81.0031 283.319 81.9353 283.854 82.7535C284.397 83.5538 285.127 84.178 286.044 84.6261C286.96 85.0743 287.901 85.2673 288.866 85.2052C289.858 85.1339 290.781 84.7949 291.635 84.1882C292.497 83.5634 293.2 82.6941 293.745 81.5802ZM308.95 73.4881L299.196 93.4304L296.744 92.2309L306.498 72.2886L308.95 73.4881ZM312.602 84.191L308.344 92.8955C307.993 93.6142 307.895 94.2009 308.051 94.6557C308.216 95.0925 308.676 95.4955 309.43 95.8646L311.236 96.7477L310.221 98.8228L308.011 97.7419C306.646 97.0741 305.775 96.2588 305.4 95.2961C305.025 94.3333 305.189 93.1333 305.892 91.696L310.15 82.9915L308.236 82.0556L309.225 80.0344L311.138 80.9703L312.957 77.2513L315.41 78.4508L313.591 82.1698L317.444 84.0547L316.456 86.0759L312.602 84.191ZM325.437 90.4686L322.338 88.9528L316.103 101.7L313.65 100.5L319.885 87.7533L317.972 86.8174L318.96 84.7962L320.874 85.7321L321.388 84.6811C322.196 83.0282 323.207 82.031 324.421 81.6894C325.661 81.3387 327.224 81.6247 329.111 82.5473L328.109 84.5955C327.031 84.0682 326.162 83.9104 325.502 84.1218C324.869 84.3242 324.315 84.9104 323.84 85.8806L323.326 86.9316L326.425 88.4474L325.437 90.4686Z" fill="#9A38FC"/>
<path d="M40.5662 173.143L4.02923 70.6442C1.80395 64.4016 5.06067 57.5369 11.3033 55.3117L68.627 34.8779C71.9695 33.6864 75.6679 34.0353 78.7285 35.8309L102.111 49.5486C104.543 50.9756 106.395 53.2135 107.342 55.8697L136.904 138.802C139.129 145.045 135.872 151.909 129.63 154.134L55.8988 180.417C49.6561 182.642 42.7915 179.385 40.5662 173.143Z" fill="white" stroke="#434243" stroke-width="3"/>
<path d="M69.0578 38.4944C76.5699 59.5683 78.3016 65.3601 104.155 55.3905" stroke="#393939" stroke-width="3"/>
<path d="M51.1362 123.411C50.6464 123.585 50.1715 123.563 49.7115 123.345C49.2515 123.127 48.9342 122.773 48.7596 122.283C48.585 121.793 48.6069 121.318 48.8251 120.858C49.0433 120.398 49.3973 120.081 49.8871 119.907C50.3581 119.739 50.8142 119.767 51.2553 119.992C51.7153 120.21 52.0326 120.564 52.2072 121.054C52.3818 121.544 52.3599 122.019 52.1417 122.479C51.9423 122.932 51.6072 123.243 51.1362 123.411ZM57.7265 105.806L54.4767 106.964L59.2413 120.33L56.6698 121.247L51.9052 107.881L49.8989 108.596L49.1434 106.477L51.1498 105.761L50.7569 104.659C50.1391 102.926 50.1319 101.506 50.7353 100.399C51.3508 99.2668 52.6476 98.348 54.6256 97.6429L55.3912 99.7906C54.2609 100.193 53.5408 100.705 53.231 101.325C52.9333 101.919 52.9658 102.725 53.3284 103.743L53.7213 104.845L56.971 103.686L57.7265 105.806ZM63.5682 104.583C63.7666 103.472 64.2704 102.443 65.0795 101.497C65.8887 100.55 66.9432 99.8449 68.243 99.3816C69.6371 98.8846 71.0074 98.7677 72.354 99.0309C73.7005 99.2941 74.9089 99.9143 75.9792 100.892C77.0428 101.85 77.8566 103.121 78.4207 104.703C78.9781 106.267 79.1548 107.775 78.9508 109.228C78.7467 110.681 78.2004 111.948 77.3119 113.029C76.4421 114.103 75.3196 114.886 73.9444 115.376C72.6068 115.853 71.3253 115.98 70.0998 115.759C68.8932 115.531 67.8744 115.055 67.0434 114.332L68.0608 117.186L65.4893 118.103L58.0352 97.1919L60.6067 96.2753L63.5682 104.583ZM75.7927 105.64C75.3764 104.472 74.7782 103.539 73.9984 102.84C73.2185 102.141 72.3429 101.71 71.3717 101.547C70.4193 101.377 69.4627 101.463 68.5019 101.805C67.56 102.141 66.7679 102.689 66.1257 103.449C65.4956 104.183 65.0935 105.08 64.9193 106.14C64.7573 107.174 64.881 108.266 65.2907 109.415C65.707 110.583 66.3085 111.526 67.0951 112.244C67.8938 112.936 68.7727 113.376 69.7319 113.565C70.7031 113.728 71.6597 113.642 72.6016 113.307C73.5624 112.964 74.3578 112.426 74.9879 111.692C75.6301 110.932 76.0322 110.035 76.1943 109C76.3496 107.947 76.2158 106.827 75.7927 105.64ZM92.6676 108.415L86.9391 103.96L85.4617 110.984L82.7772 111.941L85.039 102.471L77.2571 96.455L80.1678 95.4175L85.8862 99.8444L87.3454 92.8589L90.0299 91.902L87.7862 101.333L95.5782 107.377L92.6676 108.415Z" fill="#9A38FC"/>
<path d="M114 195V32C114 25.3726 119.373 20 126 20H218.863C222.412 20 225.778 21.5705 228.059 24.2895L255.195 56.6507C257.007 58.8115 258 61.5413 258 64.3612V195C258 201.627 252.627 207 246 207H126C119.373 207 114 201.627 114 195Z" fill="white" stroke="#434243" stroke-width="3"/>
<path d="M215.441 25C215.441 56.5 215 65 254 64" stroke="#393939" stroke-width="3"/>
<path d="M146.3 137.3C145.433 137.3 144.7 137 144.1 136.4C143.5 135.8 143.2 135.067 143.2 134.2C143.2 133.333 143.5 132.6 144.1 132C144.7 131.4 145.433 131.1 146.3 131.1C147.133 131.1 147.833 131.4 148.4 132C149 132.6 149.3 133.333 149.3 134.2C149.3 135.067 149 135.8 148.4 136.4C147.833 137 147.133 137.3 146.3 137.3ZM167.298 137.45C164.731 137.45 162.398 136.867 160.298 135.7C158.231 134.533 156.598 132.883 155.398 130.75C154.231 128.583 153.648 126.083 153.648 123.25C153.648 120.45 154.248 117.983 155.448 115.85C156.681 113.683 158.348 112.033 160.448 110.9C162.548 109.733 164.898 109.15 167.498 109.15C170.098 109.15 172.448 109.733 174.548 110.9C176.648 112.033 178.298 113.667 179.498 115.8C180.731 117.933 181.348 120.417 181.348 123.25C181.348 126.083 180.715 128.583 179.448 130.75C178.215 132.883 176.531 134.533 174.398 135.7C172.265 136.867 169.898 137.45 167.298 137.45ZM167.298 133.45C168.931 133.45 170.465 133.067 171.898 132.3C173.331 131.533 174.481 130.383 175.348 128.85C176.248 127.317 176.698 125.45 176.698 123.25C176.698 121.05 176.265 119.183 175.398 117.65C174.531 116.117 173.398 114.983 171.998 114.25C170.598 113.483 169.081 113.1 167.448 113.1C165.781 113.1 164.248 113.483 162.848 114.25C161.481 114.983 160.381 116.117 159.548 117.65C158.715 119.183 158.298 121.05 158.298 123.25C158.298 125.483 158.698 127.367 159.498 128.9C160.331 130.433 161.431 131.583 162.798 132.35C164.165 133.083 165.665 133.45 167.298 133.45ZM191.88 114.7C192.814 113.067 194.18 111.733 195.98 110.7C197.78 109.667 199.83 109.15 202.13 109.15C204.597 109.15 206.814 109.733 208.78 110.9C210.747 112.067 212.297 113.717 213.43 115.85C214.564 117.95 215.13 120.4 215.13 123.2C215.13 125.967 214.564 128.433 213.43 130.6C212.297 132.767 210.73 134.45 208.73 135.65C206.764 136.85 204.564 137.45 202.13 137.45C199.764 137.45 197.68 136.933 195.88 135.9C194.114 134.867 192.78 133.55 191.88 131.95V137H187.33V100H191.88V114.7ZM210.48 123.2C210.48 121.133 210.064 119.333 209.23 117.8C208.397 116.267 207.264 115.1 205.83 114.3C204.43 113.5 202.88 113.1 201.18 113.1C199.514 113.1 197.964 113.517 196.53 114.35C195.13 115.15 193.997 116.333 193.13 117.9C192.297 119.433 191.88 121.217 191.88 123.25C191.88 125.317 192.297 127.133 193.13 128.7C193.997 130.233 195.13 131.417 196.53 132.25C197.964 133.05 199.514 133.45 201.18 133.45C202.88 133.45 204.43 133.05 205.83 132.25C207.264 131.417 208.397 130.233 209.23 128.7C210.064 127.133 210.48 125.3 210.48 123.2ZM223.57 105.15C222.703 105.15 221.97 104.85 221.37 104.25C220.803 103.65 220.52 102.917 220.52 102.05C220.52 101.183 220.803 100.45 221.37 99.85C221.97 99.25 222.703 98.95 223.57 98.95C224.436 98.95 225.153 99.25 225.72 99.85C226.32 100.45 226.62 101.183 226.62 102.05C226.62 102.917 226.32 103.65 225.72 104.25C225.153 104.85 224.436 105.15 223.57 105.15ZM225.82 142.95C225.82 145.383 225.203 147.167 223.97 148.3C222.736 149.433 220.936 150 218.57 150H215.92V146.15H217.82C219.086 146.15 219.97 145.9 220.47 145.4C221.003 144.9 221.27 144.05 221.27 142.85V109.6H225.82V142.95Z" fill="#9A38FC"/>
</svg>
